<?xml version="1.0" encoding="UTF-8" standalone="no"?>
<!-- Created with Inkscape (http://www.inkscape.org/) -->

<svg
   width="176.75722mm"
   height="127.26236mm"
   viewBox="0 0 176.75722 127.26236"
   version="1.1"
   id="svg5"
   inkscape:version="1.2.2 (732a01da63, 2022-12-09)"
   sodipodi:docname="audio.svg"
   xmlns:inkscape="http://www.inkscape.org/namespaces/inkscape"
   xmlns:sodipodi="http://sodipodi.sourceforge.net/DTD/sodipodi-0.dtd"
   xmlns="http://www.w3.org/2000/svg"
   xmlns:svg="http://www.w3.org/2000/svg">
  <sodipodi:namedview
     id="namedview7"
     pagecolor="#505050"
     bordercolor="#ffffff"
     borderopacity="1"
     inkscape:showpageshadow="0"
     inkscape:pageopacity="0"
     inkscape:pagecheckerboard="1"
     inkscape:deskcolor="#505050"
     inkscape:document-units="mm"
     showgrid="false"
     inkscape:zoom="1.0129245"
     inkscape:cx="292.71678"
     inkscape:cy="281.85714"
     inkscape:window-width="1920"
     inkscape:window-height="991"
     inkscape:window-x="-9"
     inkscape:window-y="-9"
     inkscape:window-maximized="1"
     inkscape:current-layer="layer1" />
  <defs
     id="defs2" />
  <g
     inkscape:groupmode="layer"
     id="layer3"
     inkscape:label="Icon"
     transform="translate(-41.075286,-12.239686)">
    <g
       inkscape:label="Backdrop"
       inkscape:groupmode="layer"
       id="layer1"
       style="display:inline">
      <g
         id="g1067"
         inkscape:label="Headphones">
        <path
           style="fill:none;stroke:#ffffff;stroke-width:20;stroke-linecap:round;stroke-linejoin:round;stroke-dasharray:none;stroke-opacity:1"
           id="path1048"
           d="m 82.837875,129.50204 a 31.768606,31.768654 0 0 1 -27.512419,-15.88432 31.768606,31.768654 0 0 1 -1e-6,-31.768656 31.768606,31.768654 0 0 1 27.51242,-15.884327 v 31.768654 z"
           sodipodi:type="arc"
           sodipodi:arc-type="slice"
           sodipodi:start="1.5707963"
           sodipodi:end="4.712389"
           sodipodi:ry="31.768654"
           sodipodi:rx="31.768606"
           sodipodi:cy="97.733391"
           sodipodi:cx="82.837875"
           inkscape:label="Headphones_Ear_L" />
        <path
           style="fill:none;stroke:#ffffff;stroke-width:20;stroke-linecap:round;stroke-linejoin:round;stroke-dasharray:none;stroke-opacity:1"
           id="path1072"
           sodipodi:type="arc"
           sodipodi:cx="-176.06987"
           sodipodi:cy="97.733391"
           sodipodi:rx="31.768654"
           sodipodi:ry="31.768654"
           sodipodi:start="1.5707963"
           sodipodi:end="4.712389"
           sodipodi:arc-type="slice"
           d="m -176.06987,129.50204 a 31.768654,31.768654 0 0 1 -27.51246,-15.88432 31.768654,31.768654 0 0 1 0,-31.768656 31.768654,31.768654 0 0 1 27.51246,-15.884327 v 31.768654 z"
           transform="scale(-1,1)"
           inkscape:label="Headphones_Ear_R" />
        <path
           style="fill:none;stroke:#ffffff;stroke-width:20;stroke-linecap:round;stroke-linejoin:round;stroke-dasharray:none;stroke-opacity:1"
           d="m 82.837874,65.964732 c 0,0 -1.939318,-43.725046 46.615996,-43.725046 48.55531,0 46.616,43.725046 46.616,43.725046"
           id="path1005"
           sodipodi:nodetypes="czc"
           inkscape:label="Headphones_Rest" />
      </g>
      <path
         style="display:inline;fill:none;stroke:#ffffff;stroke-width:10;stroke-linecap:round;stroke-linejoin:round;stroke-dasharray:none;stroke-opacity:1"
         d="m 82.837875,97.733389 h 25.314255 l 5.22415,-32.991025 5.22415,51.719056 10.85344,-62.950973 8.73711,61.906143 8.35863,-32.650918 6.26898,14.967717 h 23.25128"
         id="path3862"
         inkscape:label="Audio" />
    </g>
    <g
       inkscape:label="Foreground"
       inkscape:groupmode="layer"
       id="g1087">
      <g
         id="g1075"
         inkscape:label="Headphones">
        <path
           style="fill:#ff0000;stroke:#000000;stroke-width:10;stroke-linecap:round;stroke-linejoin:round;stroke-dasharray:none"
           id="path1069"
           d="m 82.837875,129.50204 a 31.768606,31.768654 0 0 1 -27.512419,-15.88432 31.768606,31.768654 0 0 1 -1e-6,-31.768656 31.768606,31.768654 0 0 1 27.51242,-15.884327 v 31.768654 z"
           sodipodi:type="arc"
           sodipodi:arc-type="slice"
           sodipodi:start="1.5707963"
           sodipodi:end="4.712389"
           sodipodi:ry="31.768654"
           sodipodi:rx="31.768606"
           sodipodi:cy="97.733391"
           sodipodi:cx="82.837875"
           inkscape:label="Headphones_Ear_L" />
        <path
           style="fill:#ff0000;stroke:#000000;stroke-width:10;stroke-linecap:round;stroke-linejoin:round;stroke-dasharray:none"
           id="path1071"
           sodipodi:type="arc"
           sodipodi:cx="-176.06987"
           sodipodi:cy="97.733391"
           sodipodi:rx="31.768654"
           sodipodi:ry="31.768654"
           sodipodi:start="1.5707963"
           sodipodi:end="4.712389"
           sodipodi:arc-type="slice"
           d="m -176.06987,129.50204 a 31.768654,31.768654 0 0 1 -27.51246,-15.88432 31.768654,31.768654 0 0 1 0,-31.768656 31.768654,31.768654 0 0 1 27.51246,-15.884327 v 31.768654 z"
           transform="scale(-1,1)"
           inkscape:label="Headphones_Ear_R" />
        <path
           style="fill:none;stroke:#000000;stroke-width:10;stroke-linecap:round;stroke-linejoin:round;stroke-dasharray:none"
           d="m 82.837874,65.964732 c 0,0 -1.939318,-43.725046 46.615996,-43.725046 48.55531,0 46.616,43.725046 46.616,43.725046"
           id="path1073"
           sodipodi:nodetypes="czc"
           inkscape:label="Headphones_Rest" />
      </g>
      <path
         style="display:inline;fill:none;stroke:#000007;stroke-width:5;stroke-linecap:round;stroke-linejoin:round;stroke-dasharray:none;stroke-opacity:1"
         d="m 82.837875,97.733389 h 25.314255 l 5.22415,-32.991025 5.22415,51.719056 10.85344,-62.950973 8.73711,61.906143 8.35863,-32.650918 6.26898,14.967717 h 23.25128"
         id="path3264"
         inkscape:label="Audio" />
    </g>
  </g>
</svg>
