<?xml version="1.0" encoding="UTF-8" standalone="no"?>
<!-- Created with Inkscape (http://www.inkscape.org/) -->

<svg
   width="140.91129mm"
   height="88.623314mm"
   viewBox="0 0 140.91128 88.623315"
   version="1.1"
   id="svg5"
   xml:space="preserve"
   inkscape:version="1.2.2 (732a01da63, 2022-12-09)"
   sodipodi:docname="vulkan.svg"
   xmlns:inkscape="http://www.inkscape.org/namespaces/inkscape"
   xmlns:sodipodi="http://sodipodi.sourceforge.net/DTD/sodipodi-0.dtd"
   xmlns="http://www.w3.org/2000/svg"
   xmlns:svg="http://www.w3.org/2000/svg"><sodipodi:namedview
     id="namedview7"
     pagecolor="#505050"
     bordercolor="#ffffff"
     borderopacity="1"
     inkscape:showpageshadow="0"
     inkscape:pageopacity="0"
     inkscape:pagecheckerboard="1"
     inkscape:deskcolor="#505050"
     inkscape:document-units="mm"
     showgrid="false"
     inkscape:zoom="2.025849"
     inkscape:cx="215.95884"
     inkscape:cy="147.83925"
     inkscape:window-width="1920"
     inkscape:window-height="991"
     inkscape:window-x="-9"
     inkscape:window-y="-9"
     inkscape:window-maximized="1"
     inkscape:current-layer="layer1" /><defs
     id="defs2" /><g
     inkscape:label="Layer 1"
     inkscape:groupmode="layer"
     id="layer1"
     transform="translate(3.9404155,3.8344993)"><g
       id="g3184"
       transform="translate(-17.104761,-80.331264)"
       inkscape:label="Backdrop"><path
         style="fill:none;fill-opacity:1;stroke:#ffffff;stroke-width:10;stroke-linecap:round;stroke-linejoin:round;stroke-dasharray:none;stroke-opacity:1;paint-order:normal"
         d="M 56.149254,90.365204 86.994401,101.58582 74.619402,135.01679 Z"
         id="path3108"
         inkscape:label="V Box 2"
         sodipodi:nodetypes="cccc" /><path
         style="fill:none;fill-opacity:1;stroke:#ffffff;stroke-width:10;stroke-linecap:round;stroke-linejoin:round;stroke-dasharray:none;stroke-opacity:1;paint-order:normal"
         d="m 113.89048,82.017751 35.18528,29.347569 -8.62,17.5009 3.91811,6.00777 -7.62459,21.40044 -50.018478,1.97829 z"
         id="path2565"
         sodipodi:nodetypes="ccccccc"
         inkscape:label="V Box 1" /><path
         style="fill:none;fill-opacity:1;stroke:#ffffff;stroke-width:10;stroke-linecap:round;stroke-linejoin:round;stroke-dasharray:none;stroke-opacity:1;paint-order:normal"
         d="M 36.307823,94.81827 64.256761,160.12011 84.631182,158.29166 112.05795,81.496693 92.72861,83.325146 74.182887,136.35024 53.808714,89.85533 Z"
         id="path233"
         inkscape:label="Vulkan V"
         sodipodi:nodetypes="cccccccc" /><path
         style="fill:none;fill-opacity:1;stroke:#ffffff;stroke-width:10;stroke-linecap:round;stroke-linejoin:round;stroke-dasharray:none;stroke-opacity:1;paint-order:normal"
         d="m 58.249239,149.67182 c -6.530182,-5.48536 -17.988913,-9.28506 -17.696798,-16.26016 1.461988,-34.909253 90.573649,-7.50972 90.573649,-7.50972 0,0 -11.44109,-13.83056 -34.82579,-20.09282 -23.384694,-6.262259 -69.635544,-6.634952 -77.754578,22.44369 -5.451133,19.52345 39.703517,21.41901 39.703517,21.41901 z"
         id="path235"
         sodipodi:nodetypes="cscssc"
         inkscape:label="swish" /></g><g
       id="g857"
       transform="translate(-17.104761,-80.331264)"
       inkscape:label="Vulkan"><path
         style="fill:#000000;fill-opacity:1;stroke:#000000;stroke-width:2;stroke-dasharray:none;stroke-opacity:1"
         d="m 47.017323,121.39612 c 0,0 -9.534067,7.44441 -5.158846,15.60714 4.375224,8.16273 17.239686,11.10131 17.239686,11.10131 z"
         id="path847"
         inkscape:label="swish Box 1" /><path
         style="fill:#000000;fill-opacity:1;stroke:#000000;stroke-width:2;stroke-dasharray:none;stroke-opacity:1"
         d="M 56.149254,90.365204 86.994401,101.58582 74.619402,135.01679 Z"
         id="path849"
         inkscape:label="V Box 2"
         sodipodi:nodetypes="cccc" /><path
         style="fill:#000000;fill-opacity:1;stroke:#000000;stroke-width:2;stroke-dasharray:none;stroke-opacity:1"
         d="m 113.89048,82.017751 35.18528,29.347569 -8.62,17.5009 3.91811,6.00777 -7.62459,21.40044 -50.018478,1.97829 z"
         id="path851"
         sodipodi:nodetypes="ccccccc"
         inkscape:label="V Box 1" /><path
         style="fill:#e96a19;fill-opacity:1;stroke:#000000;stroke-width:2;stroke-dasharray:none;stroke-opacity:1"
         d="M 36.307823,94.81827 64.256761,160.12011 84.631182,158.29166 112.05795,81.496693 92.72861,83.325146 74.182887,136.35024 53.808714,89.85533 Z"
         id="path853"
         inkscape:label="Vulkan V"
         sodipodi:nodetypes="cccccccc" /><path
         style="fill:#e96a19;fill-opacity:1;stroke:#000000;stroke-width:2;stroke-dasharray:none;stroke-opacity:1"
         d="m 58.249239,149.67182 c -6.530182,-5.48536 -17.988913,-9.28506 -17.696798,-16.26016 1.461988,-34.909253 90.573649,-7.50972 90.573649,-7.50972 0,0 -11.44109,-13.83056 -34.82579,-20.09282 -23.384694,-6.262259 -69.635544,-6.634952 -77.754578,22.44369 -5.451133,19.52345 39.703517,21.41901 39.703517,21.41901 z"
         id="path855"
         sodipodi:nodetypes="cscssc"
         inkscape:label="swish" /></g></g></svg>
